<svg width="7" height="6" viewBox="0 0 7 6" fill="none" xmlns="http://www.w3.org/2000/svg">
<path d="M5.66101 1.91967C5.97568 2.065 6.13301 2.13767 6.21949 2.20327C6.74704 2.60343 6.74704 3.39657 6.21949 3.79673C6.13301 3.86233 5.97568 3.935 5.66101 4.08033L2.18898 5.68399C1.95143 5.79371 1.83266 5.84857 1.73999 5.87148C1.18402 6.00893 0.626407 5.65226 0.518058 5.08989C0.5 4.99616 0.5 4.86533 0.5 4.60366L0.5 1.39634C0.5 1.13467 0.5 1.00384 0.518058 0.910108C0.626407 0.347737 1.18402 -0.00892919 1.73999 0.128518C1.83266 0.151426 1.95143 0.206286 2.18898 0.316006L5.66101 1.91967Z" fill="#EE5544"/>
</svg>
